<svg width="24" height="24" viewBox="0 0 24 24" fill="none" xmlns="http://www.w3.org/2000/svg">
<path d="M0 12C0 14.3734 0.703788 16.6934 2.02236 18.6668C3.34094 20.6402 5.21508 22.1783 7.4078 23.0865C9.60051 23.9948 12.0133 24.2324 14.3411 23.7694C16.6689 23.3064 18.807 22.1635 20.4853 20.4853C22.1635 18.807 23.3064 16.6689 23.7694 14.3411C24.2324 12.0133 23.9948 9.60051 23.0865 7.4078C22.1783 5.21508 20.6402 3.34094 18.6668 2.02236C16.6934 0.703788 14.3734 0 12 0C10.4241 0 8.8637 0.310389 7.4078 0.913445C5.95189 1.5165 4.62902 2.40041 3.51472 3.51472C1.26428 5.76515 0 8.8174 0 12ZM14.232 7.572L17.664 11.172C17.7148 11.2241 17.7555 11.2851 17.784 11.352C17.835 11.4085 17.8756 11.4735 17.904 11.544C17.9675 11.6876 18.0003 11.843 18.0003 12C18.0003 12.157 17.9675 12.3124 17.904 12.456C17.8469 12.6033 17.7612 12.7379 17.652 12.852L14.052 16.452C13.826 16.678 13.5196 16.8049 13.2 16.8049C12.8804 16.8049 12.574 16.678 12.348 16.452C12.122 16.226 11.9951 15.9196 11.9951 15.6C11.9951 15.2804 12.122 14.974 12.348 14.748L13.908 13.2H7.2C6.88174 13.2 6.57651 13.0736 6.35147 12.8485C6.12643 12.6235 6 12.3183 6 12C6 11.6817 6.12643 11.3765 6.35147 11.1515C6.57651 10.9264 6.88174 10.8 7.2 10.8H13.992L12.492 9.228C12.2724 8.99726 12.1535 8.68874 12.1613 8.3703C12.1692 8.05186 12.3033 7.7496 12.534 7.53C12.7647 7.3104 13.0733 7.19145 13.3917 7.19933C13.7101 7.20721 14.0124 7.34126 14.232 7.572Z" fill="#050D32"/>
</svg>
